# MagicaVoxel @ ephtracy

# material
mtllib TacheSang.mtl

# normals
vn -1 0 0
vn 1 0 0
vn 0 0 1
vn 0 0 -1
vn 0 -1 0
vn 0 1 0

# texcoords
vt 0.0644531 0.5
vt 0.0957031 0.5
vt 0.146484 0.5
vt 0.150391 0.5

# verts
v -2 0 8.5
v -2 1 8.5
v -2 1 7.5
v -2 0 7.5
v -8 0 7.5
v -8 1 7.5
v -8 1 6.5
v -8 0 6.5
v -2 1 6.5
v -2 0 6.5
v -7 0 6.5
v -7 1 6.5
v -7 1 5.5
v -7 0 5.5
v 6 0 6.5
v 6 1 6.5
v 6 1 5.5
v 6 0 5.5
v -2 0 5.5
v -2 1 5.5
v -2 1 4.5
v -2 0 4.5
v 5 0 5.5
v 5 1 5.5
v 5 1 4.5
v 5 0 4.5
v -5 0 4.5
v -5 1 4.5
v -5 1 3.5
v -5 0 3.5
v -9 0 3.5
v -9 1 3.5
v -9 1 2.5
v -9 0 2.5
v -6 0 3.5
v -6 1 3.5
v -6 1 2.5
v -6 0 2.5
v -8 0 2.5
v -8 1 2.5
v -8 1 1.5
v -8 0 1.5
v 8 0 2.5
v 8 1 2.5
v 8 1 1.5
v 8 0 1.5
v -6 0 1.5
v -6 1 1.5
v -6 1 0.5
v -6 0 0.5
v 7 0 1.5
v 7 1 1.5
v 7 1 0.5
v 7 0 0.5
v -5 0 0.5
v -5 1 0.5
v -5 1 -0.5
v -5 0 -0.5
v -6 0 -0.5
v -6 1 -0.5
v -6 1 -1.5
v -6 0 -1.5
v -7 0 -1.5
v -7 1 -1.5
v -7 1 -2.5
v -7 0 -2.5
v -8 0 -2.5
v -8 1 -2.5
v -8 1 -3.5
v -8 0 -3.5
v -5 0 -2.5
v -5 1 -2.5
v -5 1 -3.5
v -5 0 -3.5
v -4 0 -3.5
v -4 1 -3.5
v -4 1 -4.5
v -4 0 -4.5
v -4 1 -5.5
v -4 0 -5.5
v -5 0 -5.5
v -5 1 -5.5
v -5 1 -6.5
v -5 0 -6.5
v -1 0 -5.5
v -1 1 -5.5
v -1 1 -6.5
v -1 0 -6.5
v 6 0 -5.5
v 6 1 -5.5
v 6 1 -6.5
v 6 0 -6.5
v -7 0 -6.5
v -7 1 -6.5
v -7 1 -7.5
v -7 0 -7.5
v 3 0 -6.5
v 3 1 -6.5
v 3 1 -7.5
v 3 0 -7.5
v 3 1 -8.5
v 3 0 -8.5
v -1 0 8.5
v -1 0 7.5
v -1 1 7.5
v -1 1 8.5
v -7 0 7.5
v -7 1 7.5
v -1 0 6.5
v -1 1 6.5
v -6 0 6.5
v -6 0 5.5
v -6 1 5.5
v -6 1 6.5
v 7 0 6.5
v 7 0 5.5
v 7 1 5.5
v 7 1 6.5
v 3 0 5.5
v 3 0 4.5
v 3 1 4.5
v 3 1 5.5
v 6 0 4.5
v 6 1 4.5
v 4 0 4.5
v 4 0 3.5
v 4 1 3.5
v 4 1 4.5
v -7 0 3.5
v -7 0 2.5
v -7 1 2.5
v -7 1 3.5
v 3 0 3.5
v 3 0 2.5
v 3 1 2.5
v 3 1 3.5
v 4 0 2.5
v 4 0 1.5
v 4 1 1.5
v 4 1 2.5
v 9 0 2.5
v 9 0 1.5
v 9 1 1.5
v 9 1 2.5
v 6 0 1.5
v 6 0 0.5
v 6 1 0.5
v 6 1 1.5
v 9 0 0.5
v 9 1 0.5
v 6 0 -0.5
v 6 1 -0.5
v 6 0 -1.5
v 6 1 -1.5
v 6 0 -2.5
v 6 1 -2.5
v -7 0 -3.5
v -7 1 -3.5
v 5 0 -2.5
v 5 0 -3.5
v 5 1 -3.5
v 5 1 -2.5
v 6 0 -3.5
v 6 0 -4.5
v 6 1 -4.5
v 6 1 -3.5
v 3 0 -4.5
v 3 0 -5.5
v 3 1 -5.5
v 3 1 -4.5
v -4 0 -6.5
v -4 1 -6.5
v 0 0 -5.5
v 0 0 -6.5
v 0 1 -6.5
v 0 1 -5.5
v 7 0 -5.5
v 7 0 -6.5
v 7 1 -6.5
v 7 1 -5.5
v -6 0 -6.5
v -6 0 -7.5
v -6 1 -7.5
v -6 1 -6.5
v 4 0 -6.5
v 4 0 -7.5
v 4 1 -7.5
v 4 1 -6.5
v 5 0 -7.5
v 5 0 -8.5
v 5 1 -8.5
v 5 1 -7.5
v -1 0 5.5
v -1 1 5.5
v 0 0 5.5
v 0 1 5.5
v 1 0 5.5
v 1 1 5.5
v 2 0 5.5
v 2 1 5.5
v -4 0 4.5
v -4 1 4.5
v -3 0 4.5
v -3 1 4.5
v -8 0 3.5
v -8 1 3.5
v 5 0 1.5
v 5 1 1.5
v -7 1 1.5
v -7 0 1.5
v 8 1 0.5
v 8 0 0.5
v -6 1 -2.5
v -6 0 -2.5
v 4 1 -4.5
v 4 0 -4.5
v 5 1 -4.5
v 5 0 -4.5
v -3 1 -5.5
v -3 0 -5.5
v -2 1 -5.5
v -2 0 -5.5
v 1 1 -5.5
v 1 0 -5.5
v 2 1 -5.5
v 2 0 -5.5
v 4 1 -8.5
v 4 0 -8.5
v -1 0 4.5
v 0 0 4.5
v 1 0 4.5
v 2 0 4.5
v -4 0 3.5
v -3 0 3.5
v -2 0 3.5
v -1 0 3.5
v 0 0 3.5
v 1 0 3.5
v 2 0 3.5
v -5 0 2.5
v -4 0 2.5
v -3 0 2.5
v -2 0 2.5
v -1 0 2.5
v 0 0 2.5
v 1 0 2.5
v 2 0 2.5
v -5 0 1.5
v -4 0 1.5
v -3 0 1.5
v -2 0 1.5
v -1 0 1.5
v 0 0 1.5
v 1 0 1.5
v 2 0 1.5
v 3 0 1.5
v -4 0 0.5
v -3 0 0.5
v -2 0 0.5
v -1 0 0.5
v 0 0 0.5
v 1 0 0.5
v 2 0 0.5
v 3 0 0.5
v 4 0 0.5
v 5 0 0.5
v -4 0 -0.5
v -3 0 -0.5
v -2 0 -0.5
v -1 0 -0.5
v 0 0 -0.5
v 1 0 -0.5
v 2 0 -0.5
v 3 0 -0.5
v 4 0 -0.5
v 5 0 -0.5
v -5 0 -1.5
v -4 0 -1.5
v -3 0 -1.5
v -2 0 -1.5
v -1 0 -1.5
v 0 0 -1.5
v 1 0 -1.5
v 2 0 -1.5
v 3 0 -1.5
v 4 0 -1.5
v 5 0 -1.5
v -4 0 -2.5
v -3 0 -2.5
v -2 0 -2.5
v -1 0 -2.5
v 0 0 -2.5
v 1 0 -2.5
v 2 0 -2.5
v 3 0 -2.5
v 4 0 -2.5
v -3 0 -3.5
v -2 0 -3.5
v -1 0 -3.5
v 0 0 -3.5
v 1 0 -3.5
v 2 0 -3.5
v 3 0 -3.5
v 4 0 -3.5
v -3 0 -4.5
v -2 0 -4.5
v -1 0 -4.5
v 0 0 -4.5
v 1 0 -4.5
v 2 0 -4.5
v -1 1 4.5
v 0 1 4.5
v 1 1 4.5
v 2 1 4.5
v -4 1 3.5
v -3 1 3.5
v -2 1 3.5
v -1 1 3.5
v 0 1 3.5
v 1 1 3.5
v 2 1 3.5
v -5 1 2.5
v -4 1 2.5
v -3 1 2.5
v -2 1 2.5
v -1 1 2.5
v 0 1 2.5
v 1 1 2.5
v 2 1 2.5
v -5 1 1.5
v -4 1 1.5
v -3 1 1.5
v -2 1 1.5
v -1 1 1.5
v 0 1 1.5
v 1 1 1.5
v 2 1 1.5
v 3 1 1.5
v -4 1 0.5
v -3 1 0.5
v -2 1 0.5
v -1 1 0.5
v 0 1 0.5
v 1 1 0.5
v 2 1 0.5
v 3 1 0.5
v 4 1 0.5
v 5 1 0.5
v -4 1 -0.5
v -3 1 -0.5
v -2 1 -0.5
v -1 1 -0.5
v 0 1 -0.5
v 1 1 -0.5
v 2 1 -0.5
v 3 1 -0.5
v 4 1 -0.5
v 5 1 -0.5
v -5 1 -1.5
v -4 1 -1.5
v -3 1 -1.5
v -2 1 -1.5
v -1 1 -1.5
v 0 1 -1.5
v 1 1 -1.5
v 2 1 -1.5
v 3 1 -1.5
v 4 1 -1.5
v 5 1 -1.5
v -4 1 -2.5
v -3 1 -2.5
v -2 1 -2.5
v -1 1 -2.5
v 0 1 -2.5
v 1 1 -2.5
v 2 1 -2.5
v 3 1 -2.5
v 4 1 -2.5
v -3 1 -3.5
v -2 1 -3.5
v -1 1 -3.5
v 0 1 -3.5
v 1 1 -3.5
v 2 1 -3.5
v 3 1 -3.5
v 4 1 -3.5
v -3 1 -4.5
v -2 1 -4.5
v -1 1 -4.5
v 0 1 -4.5
v 1 1 -4.5
v 2 1 -4.5

# faces

usemtl palette

f 1/1/1 2/1/1 3/1/1 4/1/1

f 5/2/1 6/2/1 7/2/1 8/2/1

f 4/2/1 3/2/1 9/2/1 10/2/1

f 11/2/1 12/2/1 13/2/1 14/2/1

f 15/1/1 16/1/1 17/1/1 18/1/1

f 19/3/1 20/3/1 21/3/1 22/3/1

f 23/4/1 24/4/1 25/4/1 26/4/1

f 27/1/1 28/1/1 29/1/1 30/1/1

f 31/3/1 32/3/1 33/3/1 34/3/1

f 35/1/1 36/1/1 37/1/1 38/1/1

f 39/4/1 40/4/1 41/4/1 42/4/1

f 43/1/1 44/1/1 45/1/1 46/1/1

f 47/3/1 48/3/1 49/3/1 50/3/1

f 51/4/1 52/4/1 53/4/1 54/4/1

f 55/3/1 56/3/1 57/3/1 58/3/1

f 59/3/1 60/3/1 61/3/1 62/3/1

f 63/3/1 64/3/1 65/3/1 66/3/1

f 67/4/1 68/4/1 69/4/1 70/4/1

f 71/4/1 72/4/1 73/4/1 74/4/1

f 75/4/1 76/4/1 77/4/1 78/4/1

f 78/4/1 77/4/1 79/4/1 80/4/1

f 81/4/1 82/4/1 83/4/1 84/4/1

f 85/4/1 86/4/1 87/4/1 88/4/1

f 89/4/1 90/4/1 91/4/1 92/4/1

f 93/4/1 94/4/1 95/4/1 96/4/1

f 97/3/1 98/3/1 99/3/1 100/3/1

f 100/4/1 99/4/1 101/4/1 102/4/1

f 103/1/2 104/1/2 105/1/2 106/1/2

f 107/2/2 11/2/2 12/2/2 108/2/2

f 104/2/2 109/2/2 110/2/2 105/2/2

f 111/2/2 112/2/2 113/2/2 114/2/2

f 115/1/2 116/1/2 117/1/2 118/1/2

f 119/1/2 120/1/2 121/1/2 122/1/2

f 18/4/2 123/4/2 124/4/2 17/4/2

f 125/1/2 126/1/2 127/1/2 128/1/2

f 129/1/2 130/1/2 131/1/2 132/1/2

f 133/3/2 134/3/2 135/3/2 136/3/2

f 137/1/2 138/1/2 139/1/2 140/1/2

f 141/1/2 142/1/2 143/1/2 144/1/2

f 145/1/2 146/1/2 147/1/2 148/1/2

f 142/3/2 149/3/2 150/3/2 143/3/2

f 146/3/2 151/3/2 152/3/2 147/3/2

f 151/3/2 153/3/2 154/3/2 152/3/2

f 153/3/2 155/3/2 156/3/2 154/3/2

f 66/4/2 157/4/2 158/4/2 65/4/2

f 159/1/2 160/1/2 161/1/2 162/1/2

f 163/1/2 164/1/2 165/1/2 166/1/2

f 167/3/2 168/3/2 169/3/2 170/3/2

f 80/4/2 171/4/2 172/4/2 79/4/2

f 173/4/2 174/4/2 175/4/2 176/4/2

f 177/4/2 178/4/2 179/4/2 180/4/2

f 181/4/2 182/4/2 183/4/2 184/4/2

f 185/3/2 186/3/2 187/3/2 188/3/2

f 189/3/2 190/3/2 191/3/2 192/3/2

f 1/1/3 103/1/3 106/1/3 2/1/3

f 5/2/3 107/2/3 108/2/3 6/2/3

f 11/2/3 111/2/3 114/2/3 12/2/3

f 15/1/3 115/1/3 118/1/3 16/1/3

f 19/3/3 193/3/3 194/3/3 20/3/3

f 193/3/3 195/3/3 196/3/3 194/3/3

f 195/1/3 197/1/3 198/1/3 196/1/3

f 197/1/3 199/1/3 200/1/3 198/1/3

f 199/1/3 119/1/3 122/1/3 200/1/3

f 23/4/3 18/4/3 17/4/3 24/4/3

f 27/1/3 201/1/3 202/1/3 28/1/3

f 201/1/3 203/1/3 204/1/3 202/1/3

f 203/3/3 22/3/3 21/3/3 204/3/3

f 120/1/3 125/1/3 128/1/3 121/1/3

f 31/3/3 205/3/3 206/3/3 32/3/3

f 205/1/3 129/1/3 132/1/3 206/1/3

f 35/1/3 30/1/3 29/1/3 36/1/3

f 130/3/3 38/3/3 37/3/3 131/3/3

f 134/1/3 137/1/3 140/1/3 135/1/3

f 43/1/3 141/1/3 144/1/3 44/1/3

f 138/1/3 207/1/3 208/1/3 139/1/3

f 207/1/3 145/1/3 148/1/3 208/1/3

f 51/4/3 46/4/3 45/4/3 52/4/3

f 59/3/3 58/3/3 57/3/3 60/3/3

f 63/3/3 62/3/3 61/3/3 64/3/3

f 67/4/3 66/4/3 65/4/3 68/4/3

f 160/1/3 163/1/3 166/1/3 161/1/3

f 81/4/3 80/4/3 79/4/3 82/4/3

f 89/4/3 177/4/3 180/4/3 90/4/3

f 93/4/3 181/4/3 184/4/3 94/4/3

f 97/3/3 185/3/3 188/3/3 98/3/3

f 186/3/3 189/3/3 192/3/3 187/3/3

f 8/2/4 7/2/4 12/2/4 11/2/4

f 10/2/4 9/2/4 110/2/4 109/2/4

f 14/2/4 13/2/4 113/2/4 112/2/4

f 18/1/4 17/1/4 117/1/4 116/1/4

f 26/4/4 25/4/4 124/4/4 123/4/4

f 133/1/4 136/1/4 127/1/4 126/1/4

f 34/3/4 33/3/4 40/3/4 39/3/4

f 42/4/4 41/4/4 209/4/4 210/4/4

f 210/3/4 209/3/4 48/3/4 47/3/4

f 50/3/4 49/3/4 56/3/4 55/3/4

f 54/4/4 53/4/4 211/4/4 212/4/4

f 212/3/4 211/3/4 150/3/4 149/3/4

f 66/3/4 65/3/4 213/3/4 214/3/4

f 214/4/4 213/4/4 72/4/4 71/4/4

f 159/3/4 162/3/4 156/3/4 155/3/4

f 70/4/4 69/4/4 158/4/4 157/4/4

f 74/4/4 73/4/4 76/4/4 75/4/4

f 167/3/4 170/3/4 215/3/4 216/3/4

f 216/3/4 215/3/4 217/3/4 218/3/4

f 218/1/4 217/1/4 165/1/4 164/1/4

f 80/4/4 79/4/4 219/4/4 220/4/4

f 220/4/4 219/4/4 221/4/4 222/4/4

f 222/3/4 221/3/4 86/3/4 85/3/4

f 173/3/4 176/3/4 223/3/4 224/3/4

f 224/3/4 223/3/4 225/3/4 226/3/4

f 226/3/4 225/3/4 169/3/4 168/3/4

f 84/4/4 83/4/4 172/4/4 171/4/4

f 88/4/4 87/4/4 175/4/4 174/4/4

f 92/4/4 91/4/4 179/4/4 178/4/4

f 96/4/4 95/4/4 183/4/4 182/4/4

f 102/4/4 101/4/4 227/4/4 228/4/4

f 228/3/4 227/3/4 191/3/4 190/3/4

f 1/1/5 4/1/5 104/1/5 103/1/5

f 5/2/5 8/2/5 11/2/5 107/2/5

f 4/2/5 10/2/5 109/2/5 104/2/5

f 11/2/5 14/2/5 112/2/5 111/2/5

f 15/1/5 18/1/5 116/1/5 115/1/5

f 19/3/5 22/3/5 229/3/5 193/3/5

f 193/3/5 229/3/5 230/3/5 195/3/5

f 195/1/5 230/1/5 231/1/5 197/1/5

f 197/1/5 231/1/5 232/1/5 199/1/5

f 199/1/5 232/1/5 120/1/5 119/1/5

f 23/4/5 26/4/5 123/4/5 18/4/5

f 27/1/5 30/1/5 233/1/5 201/1/5

f 201/1/5 233/1/5 234/1/5 203/1/5

f 203/3/5 234/3/5 235/3/5 22/3/5

f 22/3/5 235/3/5 236/3/5 229/3/5

f 229/3/5 236/3/5 237/3/5 230/3/5

f 230/3/5 237/3/5 238/3/5 231/3/5

f 231/3/5 238/3/5 239/3/5 232/3/5

f 232/1/5 239/1/5 133/1/5 120/1/5

f 120/1/5 133/1/5 126/1/5 125/1/5

f 31/3/5 34/3/5 39/3/5 205/3/5

f 205/1/5 39/1/5 130/1/5 129/1/5

f 35/1/5 38/1/5 240/1/5 30/1/5

f 30/3/5 240/3/5 241/3/5 233/3/5

f 233/3/5 241/3/5 242/3/5 234/3/5

f 234/3/5 242/3/5 243/3/5 235/3/5

f 235/3/5 243/3/5 244/3/5 236/3/5

f 236/3/5 244/3/5 245/3/5 237/3/5

f 237/3/5 245/3/5 246/3/5 238/3/5

f 238/3/5 246/3/5 247/3/5 239/3/5

f 239/3/5 247/3/5 134/3/5 133/3/5

f 39/4/5 42/4/5 210/4/5 130/4/5

f 130/3/5 210/3/5 47/3/5 38/3/5

f 38/3/5 47/3/5 248/3/5 240/3/5

f 240/3/5 248/3/5 249/3/5 241/3/5

f 241/3/5 249/3/5 250/3/5 242/3/5

f 242/3/5 250/3/5 251/3/5 243/3/5

f 243/3/5 251/3/5 252/3/5 244/3/5

f 244/3/5 252/3/5 253/3/5 245/3/5

f 245/3/5 253/3/5 254/3/5 246/3/5

f 246/3/5 254/3/5 255/3/5 247/3/5

f 247/3/5 255/3/5 256/3/5 134/3/5

f 134/1/5 256/1/5 138/1/5 137/1/5

f 43/1/5 46/1/5 142/1/5 141/1/5

f 47/3/5 50/3/5 55/3/5 248/3/5

f 248/3/5 55/3/5 257/3/5 249/3/5

f 249/3/5 257/3/5 258/3/5 250/3/5

f 250/3/5 258/3/5 259/3/5 251/3/5

f 251/3/5 259/3/5 260/3/5 252/3/5

f 252/3/5 260/3/5 261/3/5 253/3/5

f 253/3/5 261/3/5 262/3/5 254/3/5

f 254/3/5 262/3/5 263/3/5 255/3/5

f 255/3/5 263/3/5 264/3/5 256/3/5

f 256/3/5 264/3/5 265/3/5 138/3/5

f 138/1/5 265/1/5 266/1/5 207/1/5

f 207/1/5 266/1/5 146/1/5 145/1/5

f 51/4/5 54/4/5 212/4/5 46/4/5

f 46/3/5 212/3/5 149/3/5 142/3/5

f 55/3/5 58/3/5 267/3/5 257/3/5

f 257/3/5 267/3/5 268/3/5 258/3/5

f 258/3/5 268/3/5 269/3/5 259/3/5

f 259/3/5 269/3/5 270/3/5 260/3/5

f 260/3/5 270/3/5 271/3/5 261/3/5

f 261/3/5 271/3/5 272/3/5 262/3/5

f 262/3/5 272/3/5 273/3/5 263/3/5

f 263/3/5 273/3/5 274/3/5 264/3/5

f 264/3/5 274/3/5 275/3/5 265/3/5

f 265/3/5 275/3/5 276/3/5 266/3/5

f 266/3/5 276/3/5 151/3/5 146/3/5

f 59/3/5 62/3/5 277/3/5 58/3/5

f 58/3/5 277/3/5 278/3/5 267/3/5

f 267/3/5 278/3/5 279/3/5 268/3/5

f 268/3/5 279/3/5 280/3/5 269/3/5

f 269/3/5 280/3/5 281/3/5 270/3/5

f 270/3/5 281/3/5 282/3/5 271/3/5

f 271/3/5 282/3/5 283/3/5 272/3/5

f 272/3/5 283/3/5 284/3/5 273/3/5

f 273/3/5 284/3/5 285/3/5 274/3/5

f 274/3/5 285/3/5 286/3/5 275/3/5

f 275/3/5 286/3/5 287/3/5 276/3/5

f 276/3/5 287/3/5 153/3/5 151/3/5

f 63/3/5 66/3/5 214/3/5 62/3/5

f 62/4/5 214/4/5 71/4/5 277/4/5

f 277/3/5 71/3/5 288/3/5 278/3/5

f 278/3/5 288/3/5 289/3/5 279/3/5

f 279/3/5 289/3/5 290/3/5 280/3/5

f 280/3/5 290/3/5 291/3/5 281/3/5

f 281/3/5 291/3/5 292/3/5 282/3/5

f 282/3/5 292/3/5 293/3/5 283/3/5

f 283/3/5 293/3/5 294/3/5 284/3/5

f 284/3/5 294/3/5 295/3/5 285/3/5

f 285/3/5 295/3/5 296/3/5 286/3/5

f 286/3/5 296/3/5 159/3/5 287/3/5

f 287/3/5 159/3/5 155/3/5 153/3/5

f 67/4/5 70/4/5 157/4/5 66/4/5

f 71/4/5 74/4/5 75/4/5 288/4/5

f 288/3/5 75/3/5 297/3/5 289/3/5

f 289/3/5 297/3/5 298/3/5 290/3/5

f 290/3/5 298/3/5 299/3/5 291/3/5

f 291/3/5 299/3/5 300/3/5 292/3/5

f 292/3/5 300/3/5 301/3/5 293/3/5

f 293/3/5 301/3/5 302/3/5 294/3/5

f 294/3/5 302/3/5 303/3/5 295/3/5

f 295/3/5 303/3/5 304/3/5 296/3/5

f 296/1/5 304/1/5 160/1/5 159/1/5

f 75/4/5 78/4/5 305/4/5 297/4/5

f 297/3/5 305/3/5 306/3/5 298/3/5

f 298/3/5 306/3/5 307/3/5 299/3/5

f 299/3/5 307/3/5 308/3/5 300/3/5

f 300/3/5 308/3/5 309/3/5 301/3/5

f 301/3/5 309/3/5 310/3/5 302/3/5

f 302/3/5 310/3/5 167/3/5 303/3/5

f 303/3/5 167/3/5 216/3/5 304/3/5

f 304/3/5 216/3/5 218/3/5 160/3/5

f 160/1/5 218/1/5 164/1/5 163/1/5

f 78/4/5 80/4/5 220/4/5 305/4/5

f 305/4/5 220/4/5 222/4/5 306/4/5

f 306/3/5 222/3/5 85/3/5 307/3/5

f 307/4/5 85/4/5 173/4/5 308/4/5

f 308/3/5 173/3/5 224/3/5 309/3/5

f 309/3/5 224/3/5 226/3/5 310/3/5

f 310/3/5 226/3/5 168/3/5 167/3/5

f 81/4/5 84/4/5 171/4/5 80/4/5

f 85/4/5 88/4/5 174/4/5 173/4/5

f 89/4/5 92/4/5 178/4/5 177/4/5

f 93/4/5 96/4/5 182/4/5 181/4/5

f 97/3/5 100/3/5 186/3/5 185/3/5

f 100/4/5 102/4/5 228/4/5 186/4/5

f 186/3/5 228/3/5 190/3/5 189/3/5

f 2/1/6 106/1/6 105/1/6 3/1/6

f 6/2/6 108/2/6 12/2/6 7/2/6

f 3/2/6 105/2/6 110/2/6 9/2/6

f 12/2/6 114/2/6 113/2/6 13/2/6

f 16/1/6 118/1/6 117/1/6 17/1/6

f 20/3/6 194/3/6 311/3/6 21/3/6

f 194/3/6 196/3/6 312/3/6 311/3/6

f 196/1/6 198/1/6 313/1/6 312/1/6

f 198/1/6 200/1/6 314/1/6 313/1/6

f 200/1/6 122/1/6 121/1/6 314/1/6

f 24/4/6 17/4/6 124/4/6 25/4/6

f 28/1/6 202/1/6 315/1/6 29/1/6

f 202/1/6 204/1/6 316/1/6 315/1/6

f 204/3/6 21/3/6 317/3/6 316/3/6

f 21/3/6 311/3/6 318/3/6 317/3/6

f 311/3/6 312/3/6 319/3/6 318/3/6

f 312/3/6 313/3/6 320/3/6 319/3/6

f 313/3/6 314/3/6 321/3/6 320/3/6

f 314/1/6 121/1/6 136/1/6 321/1/6

f 121/1/6 128/1/6 127/1/6 136/1/6

f 32/3/6 206/3/6 40/3/6 33/3/6

f 206/1/6 132/1/6 131/1/6 40/1/6

f 36/1/6 29/1/6 322/1/6 37/1/6

f 29/3/6 315/3/6 323/3/6 322/3/6

f 315/3/6 316/3/6 324/3/6 323/3/6

f 316/3/6 317/3/6 325/3/6 324/3/6

f 317/3/6 318/3/6 326/3/6 325/3/6

f 318/3/6 319/3/6 327/3/6 326/3/6

f 319/3/6 320/3/6 328/3/6 327/3/6

f 320/3/6 321/3/6 329/3/6 328/3/6

f 321/3/6 136/3/6 135/3/6 329/3/6

f 40/4/6 131/4/6 209/4/6 41/4/6

f 131/3/6 37/3/6 48/3/6 209/3/6

f 37/3/6 322/3/6 330/3/6 48/3/6

f 322/3/6 323/3/6 331/3/6 330/3/6

f 323/3/6 324/3/6 332/3/6 331/3/6

f 324/3/6 325/3/6 333/3/6 332/3/6

f 325/3/6 326/3/6 334/3/6 333/3/6

f 326/3/6 327/3/6 335/3/6 334/3/6

f 327/3/6 328/3/6 336/3/6 335/3/6

f 328/3/6 329/3/6 337/3/6 336/3/6

f 329/3/6 135/3/6 338/3/6 337/3/6

f 135/1/6 140/1/6 139/1/6 338/1/6

f 44/1/6 144/1/6 143/1/6 45/1/6

f 48/3/6 330/3/6 56/3/6 49/3/6

f 330/3/6 331/3/6 339/3/6 56/3/6

f 331/3/6 332/3/6 340/3/6 339/3/6

f 332/3/6 333/3/6 341/3/6 340/3/6

f 333/3/6 334/3/6 342/3/6 341/3/6

f 334/3/6 335/3/6 343/3/6 342/3/6

f 335/3/6 336/3/6 344/3/6 343/3/6

f 336/3/6 337/3/6 345/3/6 344/3/6

f 337/3/6 338/3/6 346/3/6 345/3/6

f 338/3/6 139/3/6 347/3/6 346/3/6

f 139/1/6 208/1/6 348/1/6 347/1/6

f 208/1/6 148/1/6 147/1/6 348/1/6

f 52/4/6 45/4/6 211/4/6 53/4/6

f 45/3/6 143/3/6 150/3/6 211/3/6

f 56/3/6 339/3/6 349/3/6 57/3/6

f 339/3/6 340/3/6 350/3/6 349/3/6

f 340/3/6 341/3/6 351/3/6 350/3/6

f 341/3/6 342/3/6 352/3/6 351/3/6

f 342/3/6 343/3/6 353/3/6 352/3/6

f 343/3/6 344/3/6 354/3/6 353/3/6

f 344/3/6 345/3/6 355/3/6 354/3/6

f 345/3/6 346/3/6 356/3/6 355/3/6

f 346/3/6 347/3/6 357/3/6 356/3/6

f 347/3/6 348/3/6 358/3/6 357/3/6

f 348/3/6 147/3/6 152/3/6 358/3/6

f 60/3/6 57/3/6 359/3/6 61/3/6

f 57/3/6 349/3/6 360/3/6 359/3/6

f 349/3/6 350/3/6 361/3/6 360/3/6

f 350/3/6 351/3/6 362/3/6 361/3/6

f 351/3/6 352/3/6 363/3/6 362/3/6

f 352/3/6 353/3/6 364/3/6 363/3/6

f 353/3/6 354/3/6 365/3/6 364/3/6

f 354/3/6 355/3/6 366/3/6 365/3/6

f 355/3/6 356/3/6 367/3/6 366/3/6

f 356/3/6 357/3/6 368/3/6 367/3/6

f 357/3/6 358/3/6 369/3/6 368/3/6

f 358/3/6 152/3/6 154/3/6 369/3/6

f 64/3/6 61/3/6 213/3/6 65/3/6

f 61/4/6 359/4/6 72/4/6 213/4/6

f 359/3/6 360/3/6 370/3/6 72/3/6

f 360/3/6 361/3/6 371/3/6 370/3/6

f 361/3/6 362/3/6 372/3/6 371/3/6

f 362/3/6 363/3/6 373/3/6 372/3/6

f 363/3/6 364/3/6 374/3/6 373/3/6

f 364/3/6 365/3/6 375/3/6 374/3/6

f 365/3/6 366/3/6 376/3/6 375/3/6

f 366/3/6 367/3/6 377/3/6 376/3/6

f 367/3/6 368/3/6 378/3/6 377/3/6

f 368/3/6 369/3/6 162/3/6 378/3/6

f 369/3/6 154/3/6 156/3/6 162/3/6

f 68/4/6 65/4/6 158/4/6 69/4/6

f 72/4/6 370/4/6 76/4/6 73/4/6

f 370/3/6 371/3/6 379/3/6 76/3/6

f 371/3/6 372/3/6 380/3/6 379/3/6

f 372/3/6 373/3/6 381/3/6 380/3/6

f 373/3/6 374/3/6 382/3/6 381/3/6

f 374/3/6 375/3/6 383/3/6 382/3/6

f 375/3/6 376/3/6 384/3/6 383/3/6

f 376/3/6 377/3/6 385/3/6 384/3/6

f 377/3/6 378/3/6 386/3/6 385/3/6

f 378/1/6 162/1/6 161/1/6 386/1/6

f 76/4/6 379/4/6 387/4/6 77/4/6

f 379/3/6 380/3/6 388/3/6 387/3/6

f 380/3/6 381/3/6 389/3/6 388/3/6

f 381/3/6 382/3/6 390/3/6 389/3/6

f 382/3/6 383/3/6 391/3/6 390/3/6

f 383/3/6 384/3/6 392/3/6 391/3/6

f 384/3/6 385/3/6 170/3/6 392/3/6

f 385/3/6 386/3/6 215/3/6 170/3/6

f 386/3/6 161/3/6 217/3/6 215/3/6

f 161/1/6 166/1/6 165/1/6 217/1/6

f 77/4/6 387/4/6 219/4/6 79/4/6

f 387/4/6 388/4/6 221/4/6 219/4/6

f 388/3/6 389/3/6 86/3/6 221/3/6

f 389/4/6 390/4/6 176/4/6 86/4/6

f 390/3/6 391/3/6 223/3/6 176/3/6

f 391/3/6 392/3/6 225/3/6 223/3/6

f 392/3/6 170/3/6 169/3/6 225/3/6

f 82/4/6 79/4/6 172/4/6 83/4/6

f 86/4/6 176/4/6 175/4/6 87/4/6

f 90/4/6 180/4/6 179/4/6 91/4/6

f 94/4/6 184/4/6 183/4/6 95/4/6

f 98/3/6 188/3/6 187/3/6 99/3/6

f 99/4/6 187/4/6 227/4/6 101/4/6

f 187/3/6 192/3/6 191/3/6 227/3/6

# numNormals 6
# numTexCoords 4
# numVerts 392
# numFaces 376
