# MagicaVoxel @ ephtracy

# material
mtllib Cailloux1.mtl

# normals
vn -1 0 0
vn 1 0 0
vn 0 0 1
vn 0 0 -1
vn 0 -1 0
vn 0 1 0

# texcoords
vt 0.00976563 0.5
vt 0.0136719 0.5
vt 0.0175781 0.5
vt 0.0214844 0.5
vt 0.0292969 0.5

# verts
v 0.5 3 -0.5
v 0.5 4 -0.5
v 0.5 4 -1.5
v 0.5 3 -1.5
v -1.5 1 -0.5
v -1.5 2 -0.5
v -1.5 2 -1.5
v -1.5 1 -1.5
v -2.5 0 2.5
v -2.5 1 2.5
v -2.5 1 1.5
v -2.5 0 1.5
v -1.5 0 -1.5
v -1.5 1 -2.5
v -1.5 0 -2.5
v -1.5 2 0.5
v -1.5 3 0.5
v -1.5 3 -0.5
v -1.5 1 2.5
v -1.5 2 2.5
v -1.5 2 1.5
v -1.5 1 1.5
v -2.5 1 0.5
v -2.5 2 0.5
v -2.5 2 -0.5
v -2.5 1 -0.5
v 0.5 2 -1.5
v 0.5 3 -2.5
v 0.5 2 -2.5
v -3.5 0 1.5
v -3.5 1 1.5
v -3.5 1 0.5
v -3.5 0 0.5
v -0.5 2 1.5
v -0.5 3 1.5
v -0.5 3 0.5
v -0.5 2 0.5
v -0.5 2 -0.5
v -0.5 3 -0.5
v -0.5 3 -1.5
v -0.5 2 -1.5
v -2.5 2 1.5
v -0.5 4 0.5
v -0.5 4 -0.5
v -3.5 1 -0.5
v -3.5 0 -0.5
v 0.5 1 2.5
v 0.5 2 2.5
v 0.5 2 1.5
v 0.5 1 1.5
v -0.5 1 -1.5
v -0.5 2 -2.5
v -0.5 1 -2.5
v -2.5 0 -0.5
v -2.5 1 -1.5
v -2.5 0 -1.5
v 1.5 3 -0.5
v 1.5 3 -1.5
v 1.5 4 -1.5
v 1.5 4 -0.5
v 2.5 2 0.5
v 2.5 2 -0.5
v 2.5 3 -0.5
v 2.5 3 0.5
v 2.5 0 2.5
v 2.5 0 1.5
v 2.5 1 1.5
v 2.5 1 2.5
v -0.5 1 2.5
v -0.5 1 1.5
v -0.5 2 2.5
v 1.5 1 -1.5
v 1.5 1 -2.5
v 1.5 2 -2.5
v 1.5 2 -1.5
v 2.5 0 -1.5
v 2.5 0 -2.5
v 2.5 1 -2.5
v 2.5 1 -1.5
v 1.5 2 1.5
v 1.5 2 0.5
v 1.5 3 0.5
v 1.5 3 1.5
v 1.5 3 -2.5
v 3.5 1 0.5
v 3.5 1 -0.5
v 3.5 2 -0.5
v 3.5 2 0.5
v 3.5 0 1.5
v 3.5 0 0.5
v 3.5 1 1.5
v 2.5 1 0.5
v 2.5 2 1.5
v 3.5 0 -0.5
v 1.5 2 -0.5
v 1.5 4 0.5
v 1.5 1 2.5
v 1.5 1 1.5
v 1.5 2 2.5
v 2.5 1 -0.5
v 2.5 2 -1.5
v 3.5 0 -1.5
v 3.5 1 -1.5
v -1.5 0 2.5
v -0.5 0 2.5
v 0.5 0 2.5
v 1.5 0 2.5
v 0.5 3 1.5
v 0.5 3 0.5
v 0.5 4 0.5
v 0.5 0 -2.5
v 0.5 1 -2.5
v 1.5 0 -2.5
v -0.5 0 -2.5
v 0.5 0 -1.5
v 1.5 0 -1.5
v -0.5 0 -1.5
v -1.5 0 1.5
v -0.5 0 1.5
v 0.5 0 1.5
v 1.5 0 1.5
v -2.5 0 0.5
v -1.5 0 0.5
v -0.5 0 0.5
v 0.5 0 0.5
v 1.5 0 0.5
v 2.5 0 0.5
v -1.5 0 -0.5
v -0.5 0 -0.5
v 0.5 0 -0.5
v 1.5 0 -0.5
v 2.5 0 -0.5

# faces

usemtl palette

f 1/1/1 2/1/1 3/1/1 4/1/1

f 5/4/1 6/4/1 7/4/1 8/4/1

f 9/4/1 10/4/1 11/4/1 12/4/1

f 13/4/1 8/4/1 14/4/1 15/4/1

f 16/1/1 17/1/1 18/1/1 6/1/1

f 19/4/1 20/4/1 21/4/1 22/4/1

f 23/3/1 24/3/1 25/3/1 26/3/1

f 27/1/1 4/1/1 28/1/1 29/1/1

f 30/3/1 31/3/1 32/3/1 33/3/1

f 34/1/1 35/1/1 36/1/1 37/1/1

f 38/1/1 39/1/1 40/1/1 41/1/1

f 11/3/1 42/3/1 24/3/1 23/3/1

f 36/1/1 43/1/1 44/1/1 39/1/1

f 33/3/1 32/3/1 45/3/1 46/3/1

f 47/5/1 48/5/1 49/5/1 50/5/1

f 51/1/1 41/1/1 52/1/1 53/1/1

f 54/4/1 26/4/1 55/4/1 56/4/1

f 57/1/2 58/1/2 59/1/2 60/1/2

f 61/4/2 62/4/2 63/4/2 64/4/2

f 65/2/2 66/2/2 67/2/2 68/2/2

f 69/4/2 70/4/2 34/4/2 71/4/2

f 72/5/2 73/5/2 74/5/2 75/5/2

f 76/2/2 77/2/2 78/2/2 79/2/2

f 80/1/2 81/1/2 82/1/2 83/1/2

f 75/1/2 74/1/2 84/1/2 58/1/2

f 85/2/2 86/2/2 87/2/2 88/2/2

f 89/2/2 90/2/2 85/2/2 91/2/2

f 67/4/2 92/4/2 61/4/2 93/4/2

f 90/2/2 94/2/2 86/2/2 85/2/2

f 95/4/2 75/4/2 58/4/2 57/4/2

f 82/1/2 57/1/2 60/1/2 96/1/2

f 97/5/2 98/5/2 80/5/2 99/5/2

f 100/4/2 79/4/2 101/4/2 62/4/2

f 94/2/2 102/2/2 103/2/2 86/2/2

f 81/4/3 61/4/3 64/4/3 82/4/3

f 9/4/3 104/4/3 19/4/3 10/4/3

f 104/4/3 105/4/3 69/4/3 19/4/3

f 105/5/3 106/5/3 47/5/3 69/5/3

f 106/5/3 107/5/3 97/5/3 47/5/3

f 107/2/3 65/2/3 68/2/3 97/2/3

f 16/1/3 37/1/3 36/1/3 17/1/3

f 19/4/3 69/4/3 71/4/3 20/4/3

f 70/1/3 50/1/3 49/1/3 34/1/3

f 49/1/3 80/1/3 83/1/3 108/1/3

f 92/2/3 85/2/3 88/2/3 61/2/3

f 30/3/3 12/3/3 11/3/3 31/3/3

f 66/2/3 89/2/3 91/2/3 67/2/3

f 34/1/3 49/1/3 108/1/3 35/1/3

f 98/4/3 67/4/3 93/4/3 80/4/3

f 11/3/3 22/3/3 21/3/3 42/3/3

f 36/1/3 109/1/3 110/1/3 43/1/3

f 109/1/3 82/1/3 96/1/3 110/1/3

f 47/5/3 97/5/3 99/5/3 48/5/3

f 111/5/4 112/5/4 73/5/4 113/5/4

f 114/5/4 53/5/4 112/5/4 111/5/4

f 4/1/4 3/1/4 59/1/4 58/1/4

f 95/4/4 57/4/4 63/4/4 62/4/4

f 8/4/4 7/4/4 41/4/4 51/4/4

f 15/4/4 14/4/4 53/4/4 114/4/4

f 6/1/4 18/1/4 39/1/4 38/1/4

f 26/3/4 25/3/4 6/3/4 5/3/4

f 112/5/4 29/5/4 74/5/4 73/5/4

f 113/2/4 73/2/4 78/2/4 77/2/4

f 29/1/4 28/1/4 84/1/4 74/1/4

f 100/2/4 62/2/4 87/2/4 86/2/4

f 41/1/4 40/1/4 4/1/4 27/1/4

f 39/1/4 44/1/4 2/1/4 1/1/4

f 46/3/4 45/3/4 26/3/4 54/3/4

f 72/4/4 75/4/4 101/4/4 79/4/4

f 53/1/4 52/1/4 29/1/4 112/1/4

f 56/4/4 55/4/4 8/4/4 13/4/4

f 76/2/4 79/2/4 103/2/4 102/2/4

f 115/5/5 111/5/5 113/5/5 116/5/5

f 117/5/5 114/5/5 111/5/5 115/5/5

f 9/4/5 12/4/5 118/4/5 104/4/5

f 104/4/5 118/4/5 119/4/5 105/4/5

f 105/5/5 119/5/5 120/5/5 106/5/5

f 106/5/5 120/5/5 121/5/5 107/5/5

f 107/2/5 121/2/5 66/2/5 65/2/5

f 13/4/5 15/4/5 114/4/5 117/4/5

f 116/2/5 113/2/5 77/2/5 76/2/5

f 30/3/5 33/3/5 122/3/5 12/3/5

f 12/4/5 122/4/5 123/4/5 118/4/5

f 118/4/5 123/4/5 124/4/5 119/4/5

f 119/4/5 124/4/5 125/4/5 120/4/5

f 120/4/5 125/4/5 126/4/5 121/4/5

f 121/4/5 126/4/5 127/4/5 66/4/5

f 66/2/5 127/2/5 90/2/5 89/2/5

f 33/3/5 46/3/5 54/3/5 122/3/5

f 122/4/5 54/4/5 128/4/5 123/4/5

f 123/4/5 128/4/5 129/4/5 124/4/5

f 124/4/5 129/4/5 130/4/5 125/4/5

f 125/4/5 130/4/5 131/4/5 126/4/5

f 126/4/5 131/4/5 132/4/5 127/4/5

f 127/2/5 132/2/5 94/2/5 90/2/5

f 54/4/5 56/4/5 13/4/5 128/4/5

f 128/4/5 13/4/5 117/4/5 129/4/5

f 129/4/5 117/4/5 115/4/5 130/4/5

f 130/4/5 115/4/5 116/4/5 131/4/5

f 131/4/5 116/4/5 76/4/5 132/4/5

f 132/2/5 76/2/5 102/2/5 94/2/5

f 2/1/6 60/1/6 59/1/6 3/1/6

f 82/4/6 64/4/6 63/4/6 57/4/6

f 6/4/6 38/4/6 41/4/6 7/4/6

f 10/4/6 19/4/6 22/4/6 11/4/6

f 69/5/6 47/5/6 50/5/6 70/5/6

f 97/2/6 68/2/6 67/2/6 98/2/6

f 8/4/6 51/4/6 53/4/6 14/4/6

f 17/1/6 36/1/6 39/1/6 18/1/6

f 20/4/6 71/4/6 34/4/6 21/4/6

f 24/3/6 16/3/6 6/3/6 25/3/6

f 72/2/6 79/2/6 78/2/6 73/2/6

f 108/1/6 83/1/6 82/1/6 109/1/6

f 4/1/6 58/1/6 84/1/6 28/1/6

f 61/2/6 88/2/6 87/2/6 62/2/6

f 31/3/6 11/3/6 23/3/6 32/3/6

f 67/2/6 91/2/6 85/2/6 92/2/6

f 35/1/6 108/1/6 109/1/6 36/1/6

f 39/1/6 1/1/6 4/1/6 40/1/6

f 21/4/6 34/4/6 37/4/6 16/4/6

f 80/4/6 93/4/6 61/4/6 81/4/6

f 42/3/6 21/3/6 16/3/6 24/3/6

f 43/1/6 110/1/6 2/1/6 44/1/6

f 32/3/6 23/3/6 26/3/6 45/3/6

f 110/1/6 96/1/6 60/1/6 2/1/6

f 48/5/6 99/5/6 80/5/6 49/5/6

f 95/4/6 62/4/6 101/4/6 75/4/6

f 41/1/6 27/1/6 29/1/6 52/1/6

f 26/4/6 5/4/6 8/4/6 55/4/6

f 100/2/6 86/2/6 103/2/6 79/2/6

# numNormals 6
# numTexCoords 5
# numVerts 132
# numFaces 130
