# MagicaVoxel @ ephtracy

# material
mtllib pissenlit.mtl

# normals
vn -1 0 0
vn 1 0 0
vn 0 0 1
vn 0 0 -1
vn 0 -1 0
vn 0 1 0

# texcoords
vt 0.119141 0.5
vt 0.123047 0.5

# verts
v -2.5 10 -2.5
v -2.5 11 -2.5
v -2.5 11 -3.5
v -2.5 10 -3.5
v -4.5 4 1.5
v -4.5 5 1.5
v -4.5 5 0.5
v -4.5 4 0.5
v -2.5 11 -1.5
v -2.5 12 -1.5
v -2.5 12 -2.5
v -4.5 4 -2.5
v -4.5 5 -2.5
v -4.5 5 -3.5
v -4.5 4 -3.5
v -4.5 1 -0.5
v -4.5 2 -0.5
v -4.5 2 -1.5
v -4.5 1 -1.5
v -4.5 6 3.5
v -4.5 7 3.5
v -4.5 7 2.5
v -4.5 6 2.5
v 1.5 8 -2.5
v 1.5 9 -2.5
v 1.5 9 -3.5
v 1.5 8 -3.5
v -4.5 6 -2.5
v -4.5 7 -2.5
v -4.5 7 -3.5
v -4.5 6 -3.5
v -0.5 6 1.5
v -0.5 7 1.5
v -0.5 7 0.5
v -0.5 6 0.5
v -1.5 4 1.5
v -1.5 5 1.5
v -1.5 5 0.5
v -1.5 4 0.5
v 0.5 7 -1.5
v 0.5 8 -1.5
v 0.5 8 -2.5
v 0.5 7 -2.5
v -4.5 7 -4.5
v -4.5 6 -4.5
v -4.5 3 -1.5
v -4.5 3 -2.5
v -4.5 2 -2.5
v -4.5 5 2.5
v -4.5 6 1.5
v -4.5 7 1.5
v -4.5 5 -1.5
v -4.5 6 -1.5
v -0.5 6 -0.5
v -0.5 7 -0.5
v -0.5 7 -1.5
v -0.5 6 -1.5
v -4.5 6 0.5
v -0.5 5 -0.5
v -0.5 5 -1.5
v -2.5 9 -1.5
v -2.5 10 -1.5
v -2.5 9 -2.5
v -4.5 3 0.5
v -4.5 4 -0.5
v -4.5 3 -0.5
v 0.5 9 -1.5
v 0.5 9 -2.5
v -4.5 5 -0.5
v -4.5 5 -4.5
v -1.5 8 1.5
v -1.5 9 1.5
v -1.5 9 0.5
v -1.5 8 0.5
v -4.5 0 -0.5
v -4.5 0 -1.5
v -2.5 10 -0.5
v -2.5 11 -0.5
v -3.5 10 -1.5
v -3.5 11 -1.5
v -3.5 11 -2.5
v -3.5 10 -2.5
v -4.5 4 -1.5
v 1.5 9 -1.5
v 1.5 10 -1.5
v 1.5 10 -2.5
v -1.5 6 1.5
v -1.5 6 0.5
v 1.5 10 -3.5
v -0.5 8 -0.5
v -0.5 8 -1.5
v -0.5 4 -0.5
v -0.5 4 -1.5
v -4.5 5 3.5
v 0.5 6 -1.5
v 0.5 6 -2.5
v -4.5 5 4.5
v -4.5 6 4.5
v -2.5 2 -1.5
v -2.5 2 -2.5
v -2.5 3 -2.5
v -2.5 3 -1.5
v -1.5 10 -2.5
v -1.5 10 -3.5
v -1.5 11 -3.5
v -1.5 11 -2.5
v -1.5 11 -1.5
v -1.5 12 -2.5
v -1.5 12 -1.5
v -2.5 1 -0.5
v -2.5 1 -1.5
v -2.5 2 -0.5
v -2.5 4 -1.5
v -2.5 4 -2.5
v -2.5 5 -2.5
v -2.5 5 -1.5
v -2.5 4 -3.5
v -2.5 5 -3.5
v -2.5 5 1.5
v -2.5 5 0.5
v -2.5 6 0.5
v -2.5 6 1.5
v 2.5 8 -2.5
v 2.5 8 -3.5
v 2.5 9 -3.5
v 2.5 9 -2.5
v -2.5 6 -2.5
v -2.5 6 -3.5
v -2.5 7 -3.5
v -2.5 7 -2.5
v -2.5 3 0.5
v -2.5 3 -0.5
v -2.5 4 -0.5
v -2.5 4 0.5
v 2.5 8 -1.5
v 2.5 9 -1.5
v -0.5 4 1.5
v -0.5 4 0.5
v -0.5 5 0.5
v -0.5 5 1.5
v -2.5 5 2.5
v -2.5 6 2.5
v 1.5 7 -1.5
v 1.5 7 -2.5
v 1.5 8 -1.5
v -2.5 7 1.5
v -2.5 7 2.5
v -2.5 5 3.5
v -2.5 6 3.5
v 0.5 6 -0.5
v 0.5 7 -0.5
v -2.5 6 -1.5
v 0.5 5 -0.5
v 0.5 5 -1.5
v 2.5 6 1.5
v 2.5 6 0.5
v 2.5 7 0.5
v 2.5 7 1.5
v -1.5 9 -1.5
v -1.5 9 -2.5
v -1.5 10 -1.5
v -0.5 10 -1.5
v -0.5 10 -2.5
v -0.5 11 -2.5
v -0.5 11 -1.5
v 1.5 5 1.5
v 1.5 5 0.5
v 1.5 6 0.5
v 1.5 6 1.5
v -2.5 5 4.5
v -2.5 6 4.5
v -0.5 8 1.5
v -0.5 8 0.5
v -0.5 9 0.5
v -0.5 9 1.5
v -2.5 0 -0.5
v -2.5 0 -1.5
v -1.5 10 -0.5
v -1.5 11 -0.5
v -2.5 4 1.5
v -2.5 5 -4.5
v -2.5 6 -4.5
v -2.5 7 3.5
v 2.5 10 -2.5
v 2.5 10 -1.5
v -2.5 5 -0.5
v 2.5 10 -3.5
v 0.5 8 -0.5
v 0.5 4 -0.5
v 0.5 4 -1.5
v 1.5 6 -1.5
v 1.5 6 -2.5
v -2.5 7 -4.5
v -3.5 2 -1.5
v -3.5 3 -1.5
v -3.5 4 1.5
v -3.5 5 1.5
v -3.5 1 -0.5
v -3.5 2 -0.5
v -3.5 4 -1.5
v -3.5 5 -1.5
v 0.5 6 1.5
v 1.5 7 1.5
v 0.5 7 1.5
v -3.5 6 3.5
v -3.5 7 3.5
v -3.5 6 -2.5
v -3.5 7 -2.5
v -3.5 3 0.5
v -3.5 4 0.5
v -3.5 6 -1.5
v 0.5 5 1.5
v -3.5 5 4.5
v -3.5 6 4.5
v -3.5 0 -0.5
v -3.5 2 -2.5
v -3.5 3 -2.5
v -3.5 5 -3.5
v -3.5 4 -3.5
v -3.5 1 -1.5
v 0.5 6 0.5
v 0.5 7 0.5
v 1.5 7 0.5
v -3.5 5 0.5
v -3.5 6 0.5
v -3.5 3 -0.5
v -3.5 4 -0.5
v -3.5 6 1.5
v -3.5 7 1.5
v -3.5 7 -4.5
v -3.5 6 -4.5
v 0.5 5 0.5
v -3.5 5 -0.5
v -3.5 5 -4.5
v -3.5 0 -1.5
v -3.5 4 -2.5
v -3.5 5 2.5
v -3.5 5 3.5
v -3.5 7 2.5
v -3.5 7 -3.5

# faces

usemtl palette

f 1/1/1 2/1/1 3/1/1 4/1/1

f 5/2/1 6/2/1 7/2/1 8/2/1

f 9/1/1 10/1/1 11/1/1 2/1/1

f 12/2/1 13/2/1 14/2/1 15/2/1

f 16/2/1 17/2/1 18/2/1 19/2/1

f 20/2/1 21/2/1 22/2/1 23/2/1

f 24/2/1 25/2/1 26/2/1 27/2/1

f 28/2/1 29/2/1 30/2/1 31/2/1

f 13/2/1 28/2/1 31/2/1 14/2/1

f 32/2/1 33/2/1 34/2/1 35/2/1

f 36/2/1 37/2/1 38/2/1 39/2/1

f 40/2/1 41/2/1 42/2/1 43/2/1

f 31/2/1 30/2/1 44/2/1 45/2/1

f 18/2/1 46/2/1 47/2/1 48/2/1

f 49/2/1 23/2/1 50/2/1 6/2/1

f 23/2/1 22/2/1 51/2/1 50/2/1

f 52/2/1 53/2/1 28/2/1 13/2/1

f 54/2/1 55/2/1 56/2/1 57/2/1

f 6/2/1 50/2/1 58/2/1 7/2/1

f 59/2/1 54/2/1 57/2/1 60/2/1

f 61/1/1 62/1/1 1/1/1 63/1/1

f 64/2/1 8/2/1 65/2/1 66/2/1

f 41/2/1 67/2/1 68/2/1 42/2/1

f 8/2/1 7/2/1 69/2/1 65/2/1

f 14/2/1 31/2/1 45/2/1 70/2/1

f 71/1/1 72/1/1 73/1/1 74/1/1

f 75/2/1 16/2/1 19/2/1 76/2/1

f 77/1/1 78/1/1 9/1/1 62/1/1

f 79/1/1 80/1/1 81/1/1 82/1/1

f 83/2/1 52/2/1 13/2/1 12/2/1

f 84/2/1 85/2/1 86/2/1 25/2/1

f 37/2/1 87/2/1 88/2/1 38/2/1

f 25/2/1 86/2/1 89/2/1 26/2/1

f 55/2/1 90/2/1 91/2/1 56/2/1

f 92/2/1 59/2/1 60/2/1 93/2/1

f 94/2/1 20/2/1 23/2/1 49/2/1

f 95/2/1 40/2/1 43/2/1 96/2/1

f 97/2/1 98/2/1 20/2/1 94/2/1

f 46/2/1 83/2/1 12/2/1 47/2/1

f 99/2/2 100/2/2 101/2/2 102/2/2

f 103/1/2 104/1/2 105/1/2 106/1/2

f 107/1/2 106/1/2 108/1/2 109/1/2

f 110/2/2 111/2/2 99/2/2 112/2/2

f 113/2/2 114/2/2 115/2/2 116/2/2

f 114/2/2 117/2/2 118/2/2 115/2/2

f 119/2/2 120/2/2 121/2/2 122/2/2

f 123/2/2 124/2/2 125/2/2 126/2/2

f 127/2/2 128/2/2 129/2/2 130/2/2

f 131/2/2 132/2/2 133/2/2 134/2/2

f 115/2/2 118/2/2 128/2/2 127/2/2

f 135/2/2 123/2/2 126/2/2 136/2/2

f 137/2/2 138/2/2 139/2/2 140/2/2

f 141/2/2 119/2/2 122/2/2 142/2/2

f 143/2/2 144/2/2 24/2/2 145/2/2

f 142/2/2 122/2/2 146/2/2 147/2/2

f 148/2/2 141/2/2 142/2/2 149/2/2

f 150/2/2 95/2/2 40/2/2 151/2/2

f 116/2/2 115/2/2 127/2/2 152/2/2

f 153/2/2 154/2/2 95/2/2 150/2/2

f 155/2/2 156/2/2 157/2/2 158/2/2

f 159/1/2 160/1/2 103/1/2 161/1/2

f 162/1/2 163/1/2 164/1/2 165/1/2

f 166/2/2 167/2/2 168/2/2 169/2/2

f 170/2/2 148/2/2 149/2/2 171/2/2

f 172/1/2 173/1/2 174/1/2 175/1/2

f 176/2/2 177/2/2 111/2/2 110/2/2

f 178/1/2 161/1/2 107/1/2 179/1/2

f 180/2/2 134/2/2 120/2/2 119/2/2

f 118/2/2 181/2/2 182/2/2 128/2/2

f 149/2/2 142/2/2 147/2/2 183/2/2

f 136/2/2 126/2/2 184/2/2 185/2/2

f 134/2/2 133/2/2 186/2/2 120/2/2

f 126/2/2 125/2/2 187/2/2 184/2/2

f 151/2/2 40/2/2 41/2/2 188/2/2

f 189/2/2 190/2/2 154/2/2 153/2/2

f 191/2/2 192/2/2 144/2/2 143/2/2

f 128/2/2 182/2/2 193/2/2 129/2/2

f 102/2/2 101/2/2 114/2/2 113/2/2

f 194/2/3 99/2/3 102/2/3 195/2/3

f 5/2/3 196/2/3 197/2/3 6/2/3

f 9/1/3 107/1/3 109/1/3 10/1/3

f 16/2/3 198/2/3 199/2/3 17/2/3

f 198/2/3 110/2/3 112/2/3 199/2/3

f 200/2/3 113/2/3 116/2/3 201/2/3

f 202/2/3 169/2/3 203/2/3 204/2/3

f 20/2/3 205/2/3 206/2/3 21/2/3

f 207/2/3 127/2/3 130/2/3 208/2/3

f 28/2/3 207/2/3 208/2/3 29/2/3

f 209/2/3 131/2/3 134/2/3 210/2/3

f 145/2/3 135/2/3 136/2/3 84/2/3

f 32/2/3 202/2/3 204/2/3 33/2/3

f 36/2/3 137/2/3 140/2/3 37/2/3

f 40/2/3 143/2/3 145/2/3 41/2/3

f 18/2/3 194/2/3 195/2/3 46/2/3

f 52/2/3 201/2/3 211/2/3 53/2/3

f 54/2/3 150/2/3 151/2/3 55/2/3

f 201/2/3 116/2/3 152/2/3 211/2/3

f 59/2/3 153/2/3 150/2/3 54/2/3

f 169/2/3 155/2/3 158/2/3 203/2/3

f 61/1/3 159/1/3 161/1/3 62/1/3

f 161/1/3 162/1/3 165/1/3 107/1/3

f 64/2/3 209/2/3 210/2/3 8/2/3

f 212/2/3 166/2/3 169/2/3 202/2/3

f 140/2/3 212/2/3 202/2/3 32/2/3

f 41/2/3 145/2/3 84/2/3 67/2/3

f 213/2/3 170/2/3 171/2/3 214/2/3

f 71/1/3 172/1/3 175/1/3 72/1/3

f 75/2/3 215/2/3 198/2/3 16/2/3

f 215/2/3 176/2/3 110/2/3 198/2/3

f 77/1/3 178/1/3 179/1/3 78/1/3

f 196/2/3 180/2/3 119/2/3 197/2/3

f 79/1/3 62/1/3 9/1/3 80/1/3

f 205/2/3 149/2/3 183/2/3 206/2/3

f 83/2/3 200/2/3 201/2/3 52/2/3

f 84/2/3 136/2/3 185/2/3 85/2/3

f 37/2/3 140/2/3 32/2/3 87/2/3

f 55/2/3 151/2/3 188/2/3 90/2/3

f 92/2/3 189/2/3 153/2/3 59/2/3

f 95/2/3 191/2/3 143/2/3 40/2/3

f 97/2/3 213/2/3 214/2/3 98/2/3

f 46/2/3 195/2/3 200/2/3 83/2/3

f 195/2/3 102/2/3 113/2/3 200/2/3

f 216/2/4 217/2/4 101/2/4 100/2/4

f 4/1/4 3/1/4 105/1/4 104/1/4

f 2/1/4 11/1/4 108/1/4 106/1/4

f 15/2/4 14/2/4 218/2/4 219/2/4

f 19/2/4 18/2/4 194/2/4 220/2/4

f 220/2/4 194/2/4 99/2/4 111/2/4

f 221/2/4 222/2/4 223/2/4 168/2/4

f 219/2/4 218/2/4 118/2/4 117/2/4

f 224/2/4 225/2/4 121/2/4 120/2/4

f 27/2/4 26/2/4 125/2/4 124/2/4

f 226/2/4 227/2/4 133/2/4 132/2/4

f 35/2/4 34/2/4 222/2/4 221/2/4

f 39/2/4 38/2/4 139/2/4 138/2/4

f 43/2/4 42/2/4 24/2/4 144/2/4

f 228/2/4 229/2/4 146/2/4 122/2/4

f 45/2/4 44/2/4 230/2/4 231/2/4

f 48/2/4 47/2/4 217/2/4 216/2/4

f 50/2/4 51/2/4 229/2/4 228/2/4

f 57/2/4 56/2/4 40/2/4 95/2/4

f 7/2/4 58/2/4 225/2/4 224/2/4

f 60/2/4 57/2/4 95/2/4 154/2/4

f 168/2/4 223/2/4 157/2/4 156/2/4

f 63/1/4 1/1/4 103/1/4 160/1/4

f 103/1/4 106/1/4 164/1/4 163/1/4

f 66/2/4 65/2/4 227/2/4 226/2/4

f 232/2/4 221/2/4 168/2/4 167/2/4

f 139/2/4 35/2/4 221/2/4 232/2/4

f 42/2/4 68/2/4 25/2/4 24/2/4

f 65/2/4 69/2/4 233/2/4 227/2/4

f 70/2/4 45/2/4 231/2/4 234/2/4

f 74/1/4 73/1/4 174/1/4 173/1/4

f 76/2/4 19/2/4 220/2/4 235/2/4

f 235/2/4 220/2/4 111/2/4 177/2/4

f 234/2/4 231/2/4 182/2/4 181/2/4

f 82/1/4 81/1/4 2/1/4 1/1/4

f 38/2/4 88/2/4 35/2/4 139/2/4

f 227/2/4 233/2/4 186/2/4 133/2/4

f 26/2/4 89/2/4 187/2/4 125/2/4

f 56/2/4 91/2/4 41/2/4 40/2/4

f 93/2/4 60/2/4 154/2/4 190/2/4

f 96/2/4 43/2/4 144/2/4 192/2/4

f 231/2/4 230/2/4 193/2/4 182/2/4

f 47/2/4 12/2/4 236/2/4 217/2/4

f 217/2/4 236/2/4 114/2/4 101/2/4

f 194/2/5 216/2/5 100/2/5 99/2/5

f 1/1/5 4/1/5 104/1/5 103/1/5

f 5/2/5 8/2/5 210/2/5 196/2/5

f 12/2/5 15/2/5 219/2/5 236/2/5

f 236/2/5 219/2/5 117/2/5 114/2/5

f 24/2/5 27/2/5 124/2/5 123/2/5

f 209/2/5 226/2/5 132/2/5 131/2/5

f 145/2/5 24/2/5 123/2/5 135/2/5

f 36/2/5 39/2/5 138/2/5 137/2/5

f 237/2/5 197/2/5 119/2/5 141/2/5

f 238/2/5 237/2/5 141/2/5 148/2/5

f 18/2/5 48/2/5 216/2/5 194/2/5

f 49/2/5 6/2/5 197/2/5 237/2/5

f 169/2/5 168/2/5 156/2/5 155/2/5

f 61/1/5 63/1/5 160/1/5 159/1/5

f 161/1/5 103/1/5 163/1/5 162/1/5

f 64/2/5 66/2/5 226/2/5 209/2/5

f 212/2/5 232/2/5 167/2/5 166/2/5

f 140/2/5 139/2/5 232/2/5 212/2/5

f 14/2/5 70/2/5 234/2/5 218/2/5

f 213/2/5 238/2/5 148/2/5 170/2/5

f 71/1/5 74/1/5 173/1/5 172/1/5

f 75/2/5 76/2/5 235/2/5 215/2/5

f 215/2/5 235/2/5 177/2/5 176/2/5

f 77/1/5 62/1/5 161/1/5 178/1/5

f 196/2/5 210/2/5 134/2/5 180/2/5

f 218/2/5 234/2/5 181/2/5 118/2/5

f 79/1/5 82/1/5 1/1/5 62/1/5

f 92/2/5 93/2/5 190/2/5 189/2/5

f 94/2/5 49/2/5 237/2/5 238/2/5

f 95/2/5 96/2/5 192/2/5 191/2/5

f 97/2/5 94/2/5 238/2/5 213/2/5

f 2/1/6 106/1/6 105/1/6 3/1/6

f 10/1/6 109/1/6 108/1/6 11/1/6

f 17/2/6 199/2/6 194/2/6 18/2/6

f 199/2/6 112/2/6 99/2/6 194/2/6

f 204/2/6 203/2/6 223/2/6 222/2/6

f 21/2/6 206/2/6 239/2/6 22/2/6

f 228/2/6 122/2/6 121/2/6 225/2/6

f 208/2/6 130/2/6 129/2/6 240/2/6

f 29/2/6 208/2/6 240/2/6 30/2/6

f 33/2/6 204/2/6 222/2/6 34/2/6

f 239/2/6 147/2/6 146/2/6 229/2/6

f 30/2/6 240/2/6 230/2/6 44/2/6

f 22/2/6 239/2/6 229/2/6 51/2/6

f 53/2/6 211/2/6 207/2/6 28/2/6

f 50/2/6 228/2/6 225/2/6 58/2/6

f 211/2/6 152/2/6 127/2/6 207/2/6

f 203/2/6 158/2/6 157/2/6 223/2/6

f 107/1/6 165/1/6 164/1/6 106/1/6

f 67/2/6 84/2/6 25/2/6 68/2/6

f 7/2/6 224/2/6 233/2/6 69/2/6

f 214/2/6 171/2/6 149/2/6 205/2/6

f 72/1/6 175/1/6 174/1/6 73/1/6

f 78/1/6 179/1/6 107/1/6 9/1/6

f 80/1/6 9/1/6 2/1/6 81/1/6

f 206/2/6 183/2/6 147/2/6 239/2/6

f 85/2/6 185/2/6 184/2/6 86/2/6

f 87/2/6 32/2/6 35/2/6 88/2/6

f 224/2/6 120/2/6 186/2/6 233/2/6

f 86/2/6 184/2/6 187/2/6 89/2/6

f 90/2/6 188/2/6 41/2/6 91/2/6

f 240/2/6 129/2/6 193/2/6 230/2/6

f 98/2/6 214/2/6 205/2/6 20/2/6

# numNormals 6
# numTexCoords 2
# numVerts 240
# numFaces 230
