# MagicaVoxel @ ephtracy

# material
mtllib PutainDeHobbit.mtl

# normals
vn -1 0 0
vn 1 0 0
vn 0 0 1
vn 0 0 -1
vn 0 -1 0
vn 0 1 0

# texcoords
vt 0.0332031 0.5
vt 0.0371094 0.5
vt 0.0410156 0.5
vt 0.0449219 0.5
vt 0.0488281 0.5
vt 0.0527344 0.5
vt 0.0566406 0.5
vt 0.0917969 0.5

# verts
v -2.5 2 -0.5
v -2.5 3 -0.5
v -2.5 3 -1.5
v -2.5 2 -1.5
v -2.5 4 1.5
v -2.5 5 1.5
v -2.5 5 0.5
v -2.5 4 0.5
v -2.5 6 0.5
v -2.5 6 -0.5
v -2.5 5 -0.5
v -0.5 11 -0.5
v -0.5 12 -0.5
v -0.5 12 -1.5
v -0.5 11 -1.5
v -2.5 6 -1.5
v -2.5 5 -1.5
v -2.5 4 -0.5
v -2.5 4 -1.5
v -2.5 7 -1.5
v -2.5 8 -1.5
v -2.5 8 -2.5
v -2.5 7 -2.5
v -1.5 8 -1.5
v -1.5 9 -1.5
v -1.5 9 -2.5
v -1.5 8 -2.5
v -2.5 6 1.5
v -2.5 4 -2.5
v -2.5 3 -2.5
v -1.5 5 -1.5
v -1.5 6 -1.5
v -1.5 6 -2.5
v -1.5 5 -2.5
v -1.5 4 2.5
v -1.5 5 2.5
v -1.5 5 1.5
v -1.5 4 1.5
v 0.5 1 -0.5
v 0.5 2 -0.5
v 0.5 2 -1.5
v 0.5 1 -1.5
v -2.5 1 -0.5
v -2.5 1 -1.5
v -2.5 0 1.5
v -2.5 1 1.5
v -2.5 1 0.5
v -2.5 0 0.5
v 0.5 0 1.5
v 0.5 1 1.5
v 0.5 1 0.5
v 0.5 0 0.5
v -2.5 3 0.5
v 0.5 2 0.5
v -2.5 2 0.5
v 0.5 0 -0.5
v 0.5 0 -1.5
v -2.5 0 -0.5
v -2.5 0 -1.5
v -2.5 8 -0.5
v -2.5 9 -0.5
v -2.5 9 -1.5
v -2.5 8 0.5
v -2.5 9 0.5
v -2.5 7 -0.5
v -2.5 7 0.5
v -1.5 7 1.5
v -1.5 8 1.5
v -1.5 8 0.5
v -1.5 7 0.5
v -2.5 5 2.5
v -2.5 6 2.5
v -0.5 7 2.5
v -0.5 8 2.5
v -0.5 8 1.5
v -0.5 7 1.5
v 0.5 3 -0.5
v 0.5 3 -1.5
v -2.5 5 -2.5
v -1.5 3 1.5
v -1.5 4 0.5
v -1.5 3 0.5
v -2.5 7 1.5
v 0.5 3 0.5
v -1.5 10 0.5
v -1.5 11 0.5
v -1.5 11 -0.5
v -1.5 10 -0.5
v -1.5 11 -1.5
v -1.5 10 -1.5
v -2.5 10 0.5
v -2.5 10 -0.5
v -2.5 10 -1.5
v -0.5 9 -1.5
v -0.5 10 -1.5
v -0.5 10 -2.5
v -0.5 9 -2.5
v -2.5 8 1.5
v -2.5 9 1.5
v 2.5 2 -0.5
v 2.5 2 -1.5
v 2.5 3 -1.5
v 2.5 3 -0.5
v 0.5 11 -0.5
v 0.5 11 -1.5
v 0.5 12 -1.5
v 0.5 12 -0.5
v 2.5 5 0.5
v 2.5 5 -0.5
v 2.5 6 -0.5
v 2.5 6 0.5
v -0.5 2 -0.5
v -0.5 2 -1.5
v -0.5 3 -1.5
v -0.5 3 -0.5
v 2.5 4 1.5
v 2.5 4 0.5
v 2.5 5 1.5
v 2.5 5 2.5
v 2.5 6 1.5
v 2.5 6 2.5
v 2.5 7 -0.5
v 2.5 7 -1.5
v 2.5 8 -1.5
v 2.5 8 -0.5
v 1.5 8 -1.5
v 1.5 8 -2.5
v 1.5 9 -2.5
v 1.5 9 -1.5
v 2.5 3 -2.5
v 2.5 4 -2.5
v 2.5 4 -1.5
v 2.5 7 0.5
v 2.5 8 0.5
v 1.5 5 -1.5
v 1.5 5 -2.5
v 1.5 6 -2.5
v 1.5 6 -1.5
v 2.5 4 -0.5
v 2.5 5 -1.5
v 1.5 4 2.5
v 1.5 4 1.5
v 1.5 5 1.5
v 1.5 5 2.5
v 2.5 1 -0.5
v 2.5 1 -1.5
v -0.5 1 -0.5
v -0.5 1 -1.5
v -0.5 0 1.5
v -0.5 0 0.5
v -0.5 1 0.5
v -0.5 1 1.5
v 2.5 0 1.5
v 2.5 0 0.5
v 2.5 1 0.5
v 2.5 1 1.5
v 2.5 6 -1.5
v 2.5 3 0.5
v 2.5 2 0.5
v -0.5 2 0.5
v 2.5 0 -0.5
v 2.5 0 -1.5
v -0.5 0 -0.5
v -0.5 0 -1.5
v 2.5 9 -0.5
v 2.5 9 0.5
v 1.5 7 1.5
v 1.5 7 0.5
v 1.5 8 0.5
v 1.5 8 1.5
v 2.5 9 -1.5
v 0.5 7 2.5
v 0.5 7 1.5
v 0.5 8 1.5
v 0.5 8 2.5
v 2.5 5 -2.5
v 1.5 3 1.5
v 1.5 3 0.5
v 1.5 4 0.5
v 2.5 7 1.5
v -0.5 3 0.5
v 2.5 7 -2.5
v 2.5 8 -2.5
v 1.5 10 0.5
v 1.5 10 -0.5
v 1.5 11 -0.5
v 1.5 11 0.5
v 1.5 10 -1.5
v 1.5 11 -1.5
v 2.5 10 -0.5
v 2.5 10 0.5
v 2.5 10 -1.5
v 0.5 9 -1.5
v 0.5 9 -2.5
v 0.5 10 -2.5
v 0.5 10 -1.5
v 2.5 8 1.5
v 2.5 9 1.5
v 1.5 6 2.5
v -0.5 10 0.5
v 0.5 10 0.5
v 0.5 11 0.5
v -0.5 11 0.5
v 0.5 4 2.5
v 0.5 5 2.5
v -0.5 4 2.5
v -0.5 5 2.5
v -1.5 0 1.5
v -1.5 1 1.5
v 1.5 0 1.5
v 1.5 1 1.5
v 0.5 9 0.5
v 1.5 9 0.5
v -0.5 9 0.5
v -1.5 9 0.5
v 1.5 1 0.5
v 1.5 2 0.5
v -1.5 1 0.5
v -1.5 2 0.5
v 1.5 9 1.5
v 0.5 9 1.5
v -0.5 9 1.5
v -1.5 9 1.5
v 0.5 6 2.5
v -0.5 6 2.5
v -1.5 6 2.5
v 0.5 3 1.5
v 0.5 4 1.5
v -0.5 3 1.5
v -0.5 4 1.5
v 1.5 6 1.5
v 0.5 6 1.5
v -0.5 6 1.5
v -1.5 6 1.5
v -1.5 3 -1.5
v -1.5 2 -1.5
v 1.5 2 -1.5
v 1.5 3 -1.5
v -1.5 7 -2.5
v -0.5 8 -2.5
v -0.5 7 -2.5
v 0.5 8 -2.5
v 0.5 7 -2.5
v 1.5 7 -2.5
v 1.5 3 -2.5
v 1.5 4 -2.5
v 0.5 3 -2.5
v 0.5 4 -2.5
v -0.5 3 -2.5
v -0.5 4 -2.5
v -1.5 3 -2.5
v -1.5 4 -2.5
v -0.5 6 -2.5
v -0.5 5 -2.5
v 0.5 5 -2.5
v 0.5 6 -2.5
v 1.5 1 -1.5
v -1.5 1 -1.5
v 1.5 0 -1.5
v -1.5 0 -1.5
v 1.5 7 -1.5
v 0.5 6 -1.5
v 0.5 7 -1.5
v -0.5 6 -1.5
v -0.5 7 -1.5
v -1.5 7 -1.5
v -1.5 0 0.5
v 1.5 0 0.5
v 1.5 0 -0.5
v -1.5 0 -0.5

# faces

usemtl palette

f 1/2/1 2/2/1 3/2/1 4/2/1

f 5/4/1 6/4/1 7/4/1 8/4/1

f 7/3/1 9/3/1 10/3/1 11/3/1

f 12/7/1 13/7/1 14/7/1 15/7/1

f 11/3/1 10/3/1 16/3/1 17/3/1

f 2/6/1 18/6/1 19/6/1 3/6/1

f 20/7/1 21/7/1 22/7/1 23/7/1

f 24/7/1 25/7/1 26/7/1 27/7/1

f 6/4/1 28/4/1 9/4/1 7/4/1

f 3/5/1 19/5/1 29/5/1 30/5/1

f 31/6/1 32/6/1 33/6/1 34/6/1

f 35/4/1 36/4/1 37/4/1 38/4/1

f 39/1/1 40/1/1 41/1/1 42/1/1

f 43/1/1 1/1/1 4/1/1 44/1/1

f 45/8/1 46/8/1 47/8/1 48/8/1

f 49/8/1 50/8/1 51/8/1 52/8/1

f 53/6/1 8/6/1 18/6/1 2/6/1

f 51/1/1 54/1/1 40/1/1 39/1/1

f 47/1/1 55/1/1 1/1/1 43/1/1

f 56/8/1 39/8/1 42/8/1 57/8/1

f 8/6/1 7/6/1 11/6/1 18/6/1

f 58/8/1 43/8/1 44/8/1 59/8/1

f 60/7/1 61/7/1 62/7/1 21/7/1

f 63/7/1 64/7/1 61/7/1 60/7/1

f 52/8/1 51/8/1 39/8/1 56/8/1

f 48/8/1 47/8/1 43/8/1 58/8/1

f 65/7/1 60/7/1 21/7/1 20/7/1

f 66/4/1 63/4/1 60/4/1 65/4/1

f 67/5/1 68/5/1 69/5/1 70/5/1

f 71/4/1 72/4/1 28/4/1 6/4/1

f 73/5/1 74/5/1 75/5/1 76/5/1

f 40/2/1 77/2/1 78/2/1 41/2/1

f 19/3/1 17/3/1 79/3/1 29/3/1

f 80/6/1 38/6/1 81/6/1 82/6/1

f 10/6/1 65/6/1 20/6/1 16/6/1

f 9/3/1 66/3/1 65/3/1 10/3/1

f 28/4/1 83/4/1 66/4/1 9/4/1

f 54/2/1 84/2/1 77/2/1 40/2/1

f 18/3/1 11/3/1 17/3/1 19/3/1

f 55/2/1 53/2/1 2/2/1 1/2/1

f 85/7/1 86/7/1 87/7/1 88/7/1

f 88/7/1 87/7/1 89/7/1 90/7/1

f 64/7/1 91/7/1 92/7/1 61/7/1

f 61/7/1 92/7/1 93/7/1 62/7/1

f 94/7/1 95/7/1 96/7/1 97/7/1

f 98/7/1 99/7/1 64/7/1 63/7/1

f 100/2/2 101/2/2 102/2/2 103/2/2

f 104/7/2 105/7/2 106/7/2 107/7/2

f 108/3/2 109/3/2 110/3/2 111/3/2

f 112/2/2 113/2/2 114/2/2 115/2/2

f 116/4/2 117/4/2 108/4/2 118/4/2

f 119/4/2 118/4/2 120/4/2 121/4/2

f 122/7/2 123/7/2 124/7/2 125/7/2

f 126/7/2 127/7/2 128/7/2 129/7/2

f 102/5/2 130/5/2 131/5/2 132/5/2

f 118/4/2 108/4/2 111/4/2 120/4/2

f 133/4/2 122/4/2 125/4/2 134/4/2

f 135/6/2 136/6/2 137/6/2 138/6/2

f 139/3/2 132/3/2 140/3/2 109/3/2

f 141/4/2 142/4/2 143/4/2 144/4/2

f 145/1/2 146/1/2 101/1/2 100/1/2

f 147/1/2 148/1/2 113/1/2 112/1/2

f 149/8/2 150/8/2 151/8/2 152/8/2

f 153/8/2 154/8/2 155/8/2 156/8/2

f 109/3/2 140/3/2 157/3/2 110/3/2

f 158/6/2 103/6/2 139/6/2 117/6/2

f 155/1/2 145/1/2 100/1/2 159/1/2

f 117/6/2 139/6/2 109/6/2 108/6/2

f 151/1/2 147/1/2 112/1/2 160/1/2

f 161/8/2 162/8/2 146/8/2 145/8/2

f 163/8/2 164/8/2 148/8/2 147/8/2

f 134/7/2 125/7/2 165/7/2 166/7/2

f 103/6/2 102/6/2 132/6/2 139/6/2

f 154/8/2 161/8/2 145/8/2 155/8/2

f 150/8/2 163/8/2 147/8/2 151/8/2

f 167/5/2 168/5/2 169/5/2 170/5/2

f 125/7/2 124/7/2 171/7/2 165/7/2

f 172/5/2 173/5/2 174/5/2 175/5/2

f 132/3/2 131/3/2 176/3/2 140/3/2

f 177/6/2 178/6/2 179/6/2 142/6/2

f 110/6/2 157/6/2 123/6/2 122/6/2

f 111/3/2 110/3/2 122/3/2 133/3/2

f 120/4/2 111/4/2 133/4/2 180/4/2

f 159/2/2 100/2/2 103/2/2 158/2/2

f 160/2/2 112/2/2 115/2/2 181/2/2

f 123/7/2 182/7/2 183/7/2 124/7/2

f 184/7/2 185/7/2 186/7/2 187/7/2

f 185/7/2 188/7/2 189/7/2 186/7/2

f 166/7/2 165/7/2 190/7/2 191/7/2

f 165/7/2 171/7/2 192/7/2 190/7/2

f 193/7/2 194/7/2 195/7/2 196/7/2

f 197/7/2 134/7/2 166/7/2 198/7/2

f 5/4/3 38/4/3 37/4/3 6/4/3

f 12/7/3 104/7/3 107/7/3 13/7/3

f 142/4/3 116/4/3 118/4/3 143/4/3

f 144/4/3 119/4/3 121/4/3 199/4/3

f 168/4/3 133/4/3 134/4/3 169/4/3

f 200/7/3 201/7/3 202/7/3 203/7/3

f 204/4/3 141/4/3 144/4/3 205/4/3

f 206/4/3 204/4/3 205/4/3 207/4/3

f 35/4/3 206/4/3 207/4/3 36/4/3

f 45/8/3 208/8/3 209/8/3 46/8/3

f 208/8/3 149/8/3 152/8/3 209/8/3

f 49/8/3 210/8/3 211/8/3 50/8/3

f 210/8/3 153/8/3 156/8/3 211/8/3

f 212/7/3 213/7/3 184/7/3 201/7/3

f 214/7/3 212/7/3 201/7/3 200/7/3

f 215/7/3 214/7/3 200/7/3 85/7/3

f 53/6/3 82/6/3 81/6/3 8/6/3

f 178/6/3 158/6/3 117/6/3 179/6/3

f 216/1/3 155/1/3 159/1/3 217/1/3

f 51/1/3 216/1/3 217/1/3 54/1/3

f 218/1/3 151/1/3 160/1/3 219/1/3

f 47/1/3 218/1/3 219/1/3 55/1/3

f 174/7/3 170/7/3 220/7/3 221/7/3

f 75/7/3 174/7/3 221/7/3 222/7/3

f 68/7/3 75/7/3 222/7/3 223/7/3

f 205/4/3 144/4/3 199/4/3 224/4/3

f 207/4/3 205/4/3 224/4/3 225/4/3

f 66/4/3 70/4/3 69/4/3 63/4/3

f 67/5/3 76/5/3 75/5/3 68/5/3

f 173/5/3 167/5/3 170/5/3 174/5/3

f 71/4/3 36/4/3 226/4/3 72/4/3

f 36/4/3 207/4/3 225/4/3 226/4/3

f 73/5/3 172/5/3 175/5/3 74/5/3

f 227/6/3 177/6/3 142/6/3 228/6/3

f 229/6/3 227/6/3 228/6/3 230/6/3

f 80/6/3 229/6/3 230/6/3 38/6/3

f 231/4/3 120/4/3 180/4/3 167/4/3

f 232/4/3 231/4/3 167/4/3 173/4/3

f 233/4/3 232/4/3 173/4/3 76/4/3

f 234/4/3 233/4/3 76/4/3 67/4/3

f 28/4/3 234/4/3 67/4/3 83/4/3

f 217/2/3 159/2/3 158/2/3 178/2/3

f 54/2/3 217/2/3 178/2/3 84/2/3

f 219/2/3 160/2/3 181/2/3 82/2/3

f 55/2/3 219/2/3 82/2/3 53/2/3

f 85/7/3 200/7/3 203/7/3 86/7/3

f 201/7/3 184/7/3 187/7/3 202/7/3

f 64/7/3 215/7/3 85/7/3 91/7/3

f 213/7/3 166/7/3 191/7/3 184/7/3

f 170/7/3 197/7/3 198/7/3 220/7/3

f 98/7/3 68/7/3 223/7/3 99/7/3

f 4/2/4 3/2/4 235/2/4 236/2/4

f 237/2/4 238/2/4 102/2/4 101/2/4

f 15/7/4 14/7/4 106/7/4 105/7/4

f 17/3/4 16/3/4 32/3/4 31/3/4

f 236/2/4 235/2/4 114/2/4 113/2/4

f 23/7/4 22/7/4 27/7/4 239/7/4

f 239/7/4 27/7/4 240/7/4 241/7/4

f 241/7/4 240/7/4 242/7/4 243/7/4

f 243/7/4 242/7/4 127/7/4 244/7/4

f 27/7/4 26/7/4 97/7/4 240/7/4

f 240/7/4 97/7/4 194/7/4 242/7/4

f 242/7/4 194/7/4 128/7/4 127/7/4

f 245/5/4 246/5/4 131/5/4 130/5/4

f 247/5/4 248/5/4 246/5/4 245/5/4

f 249/6/4 250/6/4 248/6/4 247/6/4

f 251/5/4 252/5/4 250/5/4 249/5/4

f 30/5/4 29/5/4 252/5/4 251/5/4

f 34/6/4 33/6/4 253/6/4 254/6/4

f 95/7/4 15/7/4 105/7/4 196/7/4

f 255/6/4 256/6/4 137/6/4 136/6/4

f 257/1/4 237/1/4 101/1/4 146/1/4

f 42/1/4 41/1/4 237/1/4 257/1/4

f 258/1/4 236/1/4 113/1/4 148/1/4

f 44/1/4 4/1/4 236/1/4 258/1/4

f 250/6/4 254/6/4 255/6/4 248/6/4

f 193/7/4 196/7/4 188/7/4 129/7/4

f 25/7/4 90/7/4 95/7/4 94/7/4

f 254/6/4 253/6/4 256/6/4 255/6/4

f 135/3/4 138/3/4 157/3/4 140/3/4

f 259/8/4 257/8/4 146/8/4 162/8/4

f 57/8/4 42/8/4 257/8/4 259/8/4

f 260/8/4 258/8/4 148/8/4 164/8/4

f 59/8/4 44/8/4 258/8/4 260/8/4

f 21/7/4 62/7/4 25/7/4 24/7/4

f 252/6/4 34/6/4 254/6/4 250/6/4

f 126/7/4 129/7/4 171/7/4 124/7/4

f 246/3/4 136/3/4 176/3/4 131/3/4

f 248/6/4 255/6/4 136/6/4 246/6/4

f 41/2/4 78/2/4 238/2/4 237/2/4

f 29/3/4 79/3/4 34/3/4 252/3/4

f 138/6/4 261/6/4 123/6/4 157/6/4

f 262/6/4 263/6/4 261/6/4 138/6/4

f 264/6/4 265/6/4 263/6/4 262/6/4

f 32/6/4 266/6/4 265/6/4 264/6/4

f 16/6/4 20/6/4 266/6/4 32/6/4

f 244/7/4 127/7/4 183/7/4 182/7/4

f 196/7/4 105/7/4 189/7/4 188/7/4

f 90/7/4 89/7/4 15/7/4 95/7/4

f 62/7/4 93/7/4 90/7/4 25/7/4

f 129/7/4 188/7/4 192/7/4 171/7/4

f 97/7/4 96/7/4 195/7/4 194/7/4

f 5/4/5 8/4/5 81/4/5 38/4/5

f 142/4/5 179/4/5 117/4/5 116/4/5

f 20/7/5 23/7/5 239/7/5 266/7/5

f 266/7/5 239/7/5 241/7/5 265/7/5

f 265/7/5 241/7/5 243/7/5 263/7/5

f 263/7/5 243/7/5 244/7/5 261/7/5

f 144/4/5 143/4/5 118/4/5 119/4/5

f 238/5/5 245/5/5 130/5/5 102/5/5

f 78/5/5 247/5/5 245/5/5 238/5/5

f 114/6/5 249/6/5 247/6/5 78/6/5

f 235/5/5 251/5/5 249/5/5 114/5/5

f 3/5/5 30/5/5 251/5/5 235/5/5

f 204/4/5 228/4/5 142/4/5 141/4/5

f 206/4/5 230/4/5 228/4/5 204/4/5

f 35/4/5 38/4/5 230/4/5 206/4/5

f 45/8/5 48/8/5 267/8/5 208/8/5

f 208/8/5 267/8/5 150/8/5 149/8/5

f 49/8/5 52/8/5 268/8/5 210/8/5

f 210/8/5 268/8/5 154/8/5 153/8/5

f 181/6/5 115/6/5 77/6/5 84/6/5

f 269/8/5 259/8/5 162/8/5 161/8/5

f 56/8/5 57/8/5 259/8/5 269/8/5

f 270/8/5 260/8/5 164/8/5 163/8/5

f 58/8/5 59/8/5 260/8/5 270/8/5

f 115/6/5 114/6/5 78/6/5 77/6/5

f 268/8/5 269/8/5 161/8/5 154/8/5

f 52/8/5 56/8/5 269/8/5 268/8/5

f 267/8/5 270/8/5 163/8/5 150/8/5

f 48/8/5 58/8/5 270/8/5 267/8/5

f 71/4/5 6/4/5 37/4/5 36/4/5

f 73/5/5 76/5/5 173/5/5 172/5/5

f 227/6/5 84/6/5 178/6/5 177/6/5

f 229/6/5 181/6/5 84/6/5 227/6/5

f 80/6/5 82/6/5 181/6/5 229/6/5

f 261/7/5 244/7/5 182/7/5 123/7/5

f 170/7/5 169/7/5 134/7/5 197/7/5

f 98/7/5 63/7/5 69/7/5 68/7/5

f 13/7/6 107/7/6 106/7/6 14/7/6

f 21/7/6 24/7/6 27/7/6 22/7/6

f 199/4/6 121/4/6 120/4/6 231/4/6

f 25/7/6 94/7/6 97/7/6 26/7/6

f 193/7/6 129/7/6 128/7/6 194/7/6

f 32/6/6 264/6/6 253/6/6 33/6/6

f 203/7/6 202/7/6 104/7/6 12/7/6

f 262/6/6 138/6/6 137/6/6 256/6/6

f 46/8/6 209/8/6 218/8/6 47/8/6

f 209/8/6 152/8/6 151/8/6 218/8/6

f 50/8/6 211/8/6 216/8/6 51/8/6

f 211/8/6 156/8/6 155/8/6 216/8/6

f 264/6/6 262/6/6 256/6/6 253/6/6

f 221/7/6 220/7/6 213/7/6 212/7/6

f 222/7/6 221/7/6 212/7/6 214/7/6

f 223/7/6 222/7/6 214/7/6 215/7/6

f 224/4/6 199/4/6 231/4/6 232/4/6

f 225/4/6 224/4/6 232/4/6 233/4/6

f 72/4/6 226/4/6 234/4/6 28/4/6

f 226/4/6 225/4/6 233/4/6 234/4/6

f 74/5/6 175/5/6 174/5/6 75/5/6

f 135/3/6 140/3/6 176/3/6 136/3/6

f 17/3/6 31/3/6 34/3/6 79/3/6

f 167/4/6 180/4/6 133/4/6 168/4/6

f 83/4/6 67/4/6 70/4/6 66/4/6

f 126/7/6 124/7/6 183/7/6 127/7/6

f 86/7/6 203/7/6 12/7/6 87/7/6

f 202/7/6 187/7/6 186/7/6 104/7/6

f 104/7/6 186/7/6 189/7/6 105/7/6

f 87/7/6 12/7/6 15/7/6 89/7/6

f 91/7/6 85/7/6 88/7/6 92/7/6

f 184/7/6 191/7/6 190/7/6 185/7/6

f 92/7/6 88/7/6 90/7/6 93/7/6

f 185/7/6 190/7/6 192/7/6 188/7/6

f 95/7/6 196/7/6 195/7/6 96/7/6

f 220/7/6 198/7/6 166/7/6 213/7/6

f 99/7/6 223/7/6 215/7/6 64/7/6

# numNormals 6
# numTexCoords 8
# numVerts 270
# numFaces 268
